<?xml version="1.0" encoding="utf-8"?>
<!-- Generator: Adobe Illustrator 17.0.0, SVG Export Plug-In . SVG Version: 6.00 Build 0)  -->
<!DOCTYPE svg PUBLIC "-//W3C//DTD SVG 1.1//EN" "http://www.w3.org/Graphics/SVG/1.1/DTD/svg11.dtd">
<svg version="1.1" id="Слой_1" xmlns="http://www.w3.org/2000/svg" xmlns:xlink="http://www.w3.org/1999/xlink" x="0px" y="0px"
	 width="612px" height="792px" viewBox="0 0 612 792" enable-background="new 0 0 612 792" xml:space="preserve">
<g>
	<g>
		<path fill="#FEFEFE" d="M51.043,653.936c0-170.908,0-341.816,0-512.83c170.823,0,341.689,0,512.724,0
			c0,170.873,0,341.851,0,512.83C392.961,653.936,222.024,653.936,51.043,653.936z M472.7,366.872c0,1.998-0.348,4.07,0.054,5.984
			c3.793,18.05,10.473,34.992,23.407,48.354c9.881,10.208,14.595,10.243,22.215,0.157c3.982-5.27,7.761-10.693,11.755-15.954
			c4.581-6.034,9.609-11.559,17.863-12.192c3.149-0.242,6.368,0.127,9.464-0.361c1.244-0.196,2.242-1.95,3.351-2.995
			c-1.288-0.468-2.56-1.271-3.868-1.334c-2.465-0.117-4.972,0.46-7.424,0.271c-6.301-0.484-11.61,1.81-15.512,6.373
			c-6.435,7.526-12.54,15.36-18.391,23.352c-4.982,6.806-8.462,7.508-14.739,1.964c-0.996-0.88-1.947-1.835-2.79-2.86
			c-10.619-12.917-17.781-27.572-20.643-44.019c-1.965-11.287,0.24-21.888,8.986-30.179c5.505-5.219,8.773-4.774,12.476,1.827
			c1.914,3.412,2.968,7.297,4.722,10.813c0.655,1.313,2.196,2.183,3.333,3.255c0.285-1.475,1.158-3.142,0.75-4.391
			c-1.433-4.392-2.779-8.956-5.123-12.877c-4.853-8.118-12.125-8.816-18.936-1.99C476.321,347.413,472.483,356.366,472.7,366.872z
			 M205.151,392.457c0.531,0.033,1.063,0.067,1.594,0.1c1.975,4.303,3.795,8.687,6,12.868c0.911,1.727,2.647,3.019,4.008,4.51
			c1.52-1.553,3.612-2.848,4.451-4.708c2.485-5.509,4.475-11.241,6.904-17.521c1.957,1.772,3.599,2.924,4.819,4.421
			c5.126,6.288,10.055,12.738,15.243,18.972c0.813,0.977,2.596,1.145,3.931,1.688c0.111-1.2,0.792-2.892,0.245-3.526
			c-7.025-8.158-14.069-16.312-21.473-24.123c-2.267-2.391-5.255-1.867-6.863,1.521c-0.701,1.475-1.156,3.067-1.72,4.606
			c-1.53,4.176-3.058,8.353-4.587,12.529c-0.522-0.059-1.043-0.117-1.565-0.176c-2.057-4.475-3.937-9.045-6.26-13.377
			c-0.92-1.715-2.827-2.9-4.284-4.327c-1.288,1.356-2.835,2.547-3.813,4.098c-2.645,4.194-4.888,8.647-7.625,12.776
			c-1.101,1.661-3.077,2.742-4.655,4.087c-1.233-1.678-2.952-3.184-3.617-5.063c-3.04-8.59-6.07-17.202-8.578-25.957
			c-6.01-20.979-13.355-41.4-24.03-60.507c-0.887-1.587-2.154-2.962-3.244-4.436c-1.27,1.382-1.753,2.616-1.333,3.269
			c13.541,21.036,19.637,44.983,27.001,68.45c2.67,8.508,5.594,16.967,8.999,25.201c1.853,4.48,5.166,4.889,8.61,1.447
			c2.901-2.9,5.328-6.309,7.725-9.665C202.624,397.385,203.793,394.853,205.151,392.457z M146.083,382.646
			c-0.413,7.588-0.529,16.693-5.078,24.993c-2.103,3.837-4.986,4.253-8.199,1.748c-2.867-2.236-5.265-5.075-8.135-7.306
			c-6.347-4.934-12.583-10.098-19.374-14.353c-9.546-5.981-20.622-7.317-31.575-8.541c-1.238-0.138-2.631,1.112-3.952,1.719
			c1.405,0.95,2.783,2.683,4.218,2.731c15.248,0.507,29.158,4.697,40.981,14.587c4.202,3.515,8.073,7.453,11.896,11.391
			c9.59,9.875,18.049,5.029,20.284-5.593c1.902-9.036,3.428-18.453,3.02-27.608c-0.715-16.034-8.216-29.172-21.128-38.961
			c-3.958-3.001-8.557-2.924-10.204,1.154c-2.09,5.177-2.56,11.031-3.446,16.638c-0.102,0.645,1.602,1.576,2.469,2.374
			c0.594-0.874,1.616-1.709,1.702-2.63c0.262-2.81-0.24-5.739,0.332-8.458c0.473-2.252,1.609-5.455,3.255-6.064
			c1.663-0.615,4.705,0.964,6.47,2.406C141.698,352.738,146.025,366.036,146.083,382.646z M305.642,365.074
			c0.37,0.616,0.741,1.233,1.111,1.849c1.4-0.513,3.243-0.628,4.124-1.609c3.54-3.94,7.049-7.962,10.063-12.306
			c3.468-4.997,2.26-7.788-3.621-10.199c-1.361-0.558-2.575-1.465-3.903-2.116c-3.772-1.848-2.658-3.913-0.318-6.054
			c2.21-2.022,4.571-3.901,6.609-6.082c3.404-3.643,3.017-6.212-1.023-8.934c-1.786-1.204-3.568-2.418-5.305-3.691
			c-3.823-2.803-4.064-5.081-0.14-7.656c4.569-2.998,9.368-5.786,14.377-7.948c17.095-7.377,34.339-14.408,51.489-21.658
			c2.218-0.938,4.221-2.383,6.324-3.594c-0.28-0.607-0.56-1.214-0.84-1.821c-1.555,0.423-3.184,0.67-4.653,1.295
			c-13.649,5.816-27.361,11.496-40.868,17.628c-9.58,4.349-19.137,8.88-28.196,14.196c-5.71,3.351-5.379,7.727-0.216,11.948
			c2.511,2.053,5.238,3.842,8.421,6.153c-3.422,3.138-6.344,5.771-9.216,8.459c-4.537,4.247-4.082,7.768,1.389,10.985
			c1.003,0.59,2.026,1.146,3.056,1.687c5.556,2.913,5.759,4.275,1.47,8.702C312.35,357.848,309.017,361.482,305.642,365.074z
			 M321.816,579.539c-0.732-3.292-1.008-6.619-2.24-9.543c-1.509-3.581-3.302-7.312-5.916-10.09
			c-3.24-3.444-7.529-5.882-11.194-8.958c-1.284-1.077-2.696-2.699-2.831-4.183c-0.079-0.87,2.124-2.188,3.505-2.911
			c9.147-4.789,19.078-5.781,29.049-4.614c6.608,0.773,12.96,3.23,19.216,9.72c-6.649,2.048-12.045,3.612-17.358,5.419
			c-1.281,0.436-2.288,1.677-3.421,2.547c1.335,0.603,2.863,1.963,3.972,1.68c5.107-1.302,10.256-2.702,15.058-4.82
			c2.167-0.955,5.159-3.893,4.927-5.527c-0.344-2.429-2.791-5.188-5.085-6.607c-10.859-6.713-22.742-8.967-35.158-5.657
			c-5.795,1.545-11.462,4-16.755,6.847c-3.579,1.925-3.507,5.482-0.443,8.343c3.034,2.833,6.135,5.628,9.441,8.129
			c5.283,3.997,9.776,8.158,9.939,15.607C316.567,577.014,317.152,581.518,321.816,579.539z M327.671,219.294
			c-0.644-0.163-1.287-0.326-1.931-0.49c-0.256,1.556-0.747,3.115-0.732,4.668c0.106,10.55-3.785,19.252-11.565,26.376
			c-4.02,3.681-8.154,7.368-11.491,11.635c-5.823,7.448-3.737,12.861,5.366,15.393c10.857,3.02,21.24,0.282,31.161-3.547
			c6.574-2.537,12.652-6.568,18.542-10.538c1.764-1.189,3.153-4.575,2.84-6.676c-0.245-1.643-3.197-3.464-5.284-4.107
			c-2.771-0.853-5.878-0.864-8.825-0.763c-1.097,0.038-2.148,1.413-3.221,2.179c1.03,0.648,2.001,1.694,3.103,1.858
			c1.951,0.29,4.006-0.159,5.97,0.086c1.485,0.186,2.895,0.971,4.338,1.489c-0.78,1.358-1.298,3.002-2.398,4.013
			c-1.938,1.782-4.075,3.48-6.401,4.685c-11.308,5.857-23.252,9.48-36.109,8.267c-3.004-0.284-6.879-1.866-8.338-4.142
			c-0.91-1.42,1.38-5.767,3.254-7.908c3.705-4.231,8.343-7.632,12.19-11.754C326.276,241.3,329.938,231.12,327.671,219.294z
			 M446.737,393.618c0.023-0.204,0.046-0.408,0.069-0.612c2.665,0,5.386,0.311,7.971-0.142c1.15-0.202,2.031-1.945,3.033-2.989
			c-1.331-0.657-2.652-1.858-3.993-1.879c-7.353-0.117-14.738,0.486-22.057,0c-6.707-0.445-13.315-2.315-20.022-2.843
			c-3.217-0.253-7.178,0.232-9.741,1.958c-8.862,5.969-17.293,12.586-25.77,19.11c-0.719,0.553-0.559,2.248-0.808,3.413
			c1.278-0.007,2.928,0.505,3.775-0.102c7.283-5.228,14.794-10.24,21.471-16.178c4.395-3.909,8.54-4.678,14.059-3.788
			C425.337,391.279,436.06,392.307,446.737,393.618z M302.324,483.499c2.79,3.182,5.55,6.26,8.233,9.402
			c5.687,6.66,10.123,13.693,8.489,23.166c-0.582,3.375-0.214,6.961,0.095,10.417c0.103,1.155,1.371,2.206,2.107,3.305
			c0.779-1.198,2.201-2.38,2.231-3.596c0.165-6.637,0.074-13.286-0.132-19.924c-0.054-1.728-0.37-3.787-1.36-5.09
			c-4.571-6.009-9.507-11.739-14.134-17.707C305.779,480.799,304.168,481.347,302.324,483.499z"/>
		<path fill="#D6AC3B" d="M472.7,366.872c-0.217-10.506,3.621-19.459,10.95-26.804c6.811-6.826,14.083-6.128,18.936,1.99
			c2.344,3.921,3.69,8.485,5.123,12.877c0.408,1.249-0.465,2.916-0.75,4.391c-1.137-1.072-2.678-1.943-3.333-3.255
			c-1.754-3.516-2.807-7.401-4.722-10.813c-3.704-6.601-6.971-7.046-12.476-1.827c-8.746,8.292-10.951,18.892-8.986,30.179
			c2.863,16.446,10.024,31.101,20.643,44.019c0.843,1.026,1.794,1.98,2.79,2.86c6.277,5.544,9.757,4.842,14.739-1.964
			c5.85-7.992,11.955-15.826,18.391-23.352c3.902-4.562,9.211-6.857,15.512-6.373c2.453,0.188,4.959-0.389,7.424-0.271
			c1.307,0.062,2.58,0.865,3.868,1.334c-1.11,1.045-2.108,2.799-3.351,2.995c-3.096,0.489-6.315,0.12-9.464,0.361
			c-8.254,0.633-13.282,6.158-17.863,12.192c-3.994,5.261-7.773,10.684-11.755,15.954c-7.621,10.086-12.335,10.052-22.215-0.157
			c-12.934-13.362-19.613-30.303-23.407-48.354C472.352,370.942,472.7,368.87,472.7,366.872z"/>
		<path fill="#D6AE3F" d="M205.151,392.457c-1.358,2.397-2.527,4.929-4.119,7.158c-2.396,3.356-4.824,6.765-7.725,9.665
			c-3.444,3.443-6.757,3.033-8.61-1.447c-3.406-8.234-6.329-16.693-8.999-25.201c-7.364-23.468-13.461-47.414-27.001-68.45
			c-0.42-0.653,0.063-1.887,1.333-3.269c1.09,1.474,2.358,2.848,3.244,4.436c10.675,19.107,18.02,39.528,24.03,60.507
			c2.508,8.755,5.538,17.367,8.578,25.957c0.665,1.879,2.383,3.385,3.617,5.063c1.578-1.345,3.554-2.426,4.655-4.087
			c2.738-4.128,4.98-8.581,7.625-12.776c0.978-1.551,2.525-2.743,3.813-4.098c1.458,1.426,3.365,2.612,4.284,4.327
			c2.323,4.332,4.203,8.902,6.26,13.377c0.522,0.059,1.043,0.117,1.565,0.176c1.529-4.176,3.057-8.353,4.587-12.529
			c0.564-1.54,1.02-3.131,1.72-4.606c1.609-3.388,4.597-3.912,6.863-1.521c7.403,7.81,14.448,15.965,21.473,24.123
			c0.546,0.634-0.135,2.326-0.245,3.526c-1.335-0.542-3.118-0.711-3.931-1.688c-5.189-6.234-10.118-12.684-15.243-18.972
			c-1.22-1.497-2.862-2.649-4.819-4.421c-2.429,6.279-4.419,12.012-6.904,17.521c-0.839,1.86-2.932,3.155-4.451,4.708
			c-1.361-1.49-3.097-2.782-4.008-4.51c-2.205-4.181-4.025-8.566-6-12.868C206.214,392.523,205.683,392.49,205.151,392.457z"/>
		<path fill="#D6AF41" d="M146.083,382.646c-0.058-16.61-4.384-29.908-16.463-39.773c-1.765-1.442-4.807-3.021-6.47-2.406
			c-1.646,0.609-2.782,3.812-3.255,6.064c-0.571,2.72-0.069,5.648-0.332,8.458c-0.086,0.922-1.108,1.756-1.702,2.63
			c-0.867-0.798-2.571-1.729-2.469-2.374c0.886-5.607,1.355-11.462,3.446-16.638c1.647-4.078,6.246-4.155,10.204-1.154
			c12.911,9.789,20.413,22.927,21.128,38.961c0.408,9.155-1.119,18.571-3.02,27.608c-2.235,10.622-10.694,15.468-20.284,5.593
			c-3.824-3.937-7.694-7.875-11.896-11.391c-11.823-9.891-25.734-14.08-40.981-14.587c-1.435-0.048-2.813-1.78-4.218-2.731
			c1.321-0.607,2.714-1.857,3.952-1.719c10.954,1.224,22.029,2.56,31.575,8.541c6.792,4.255,13.027,9.419,19.374,14.353
			c2.87,2.231,5.268,5.07,8.135,7.306c3.213,2.506,6.096,2.089,8.199-1.748C145.553,399.339,145.67,390.234,146.083,382.646z"/>
		<path fill="#D6AF42" d="M305.642,365.074c3.375-3.592,6.708-7.226,10.137-10.766c4.288-4.427,4.085-5.79-1.47-8.702
			c-1.03-0.54-2.053-1.097-3.056-1.687c-5.471-3.217-5.926-6.739-1.389-10.985c2.871-2.688,5.793-5.321,9.216-8.459
			c-3.183-2.311-5.91-4.1-8.421-6.153c-5.162-4.221-5.494-8.598,0.216-11.948c9.059-5.316,18.616-9.848,28.196-14.196
			c13.507-6.131,27.219-11.812,40.868-17.628c1.468-0.626,3.098-0.873,4.653-1.295c0.28,0.607,0.56,1.214,0.84,1.821
			c-2.103,1.21-4.106,2.656-6.324,3.594c-17.15,7.25-34.394,14.281-51.489,21.658c-5.009,2.162-9.808,4.95-14.377,7.948
			c-3.924,2.575-3.683,4.853,0.14,7.656c1.737,1.273,3.518,2.488,5.305,3.691c4.04,2.722,4.427,5.291,1.023,8.934
			c-2.038,2.181-4.4,4.06-6.609,6.082c-2.34,2.141-3.454,4.207,0.318,6.054c1.328,0.651,2.542,1.558,3.903,2.116
			c5.881,2.411,7.089,5.201,3.621,10.199c-3.014,4.343-6.523,8.365-10.063,12.306c-0.88,0.98-2.723,1.096-4.124,1.609
			C306.383,366.307,306.012,365.69,305.642,365.074z"/>
		<path fill="#D6AD3C" d="M321.816,579.539c-4.664,1.978-5.249-2.526-5.295-4.616c-0.163-7.449-4.656-11.61-9.939-15.607
			c-3.306-2.501-6.407-5.296-9.441-8.129c-3.064-2.861-3.136-6.418,0.443-8.343c5.292-2.847,10.96-5.302,16.755-6.847
			c12.416-3.311,24.299-1.056,35.158,5.657c2.294,1.418,4.741,4.177,5.085,6.607c0.232,1.634-2.76,4.572-4.927,5.527
			c-4.802,2.117-9.951,3.518-15.058,4.82c-1.109,0.283-2.637-1.077-3.972-1.68c1.133-0.871,2.14-2.112,3.421-2.547
			c5.313-1.807,10.71-3.37,17.358-5.419c-6.256-6.49-12.608-8.948-19.216-9.72c-9.971-1.166-19.902-0.175-29.049,4.614
			c-1.382,0.724-3.585,2.042-3.505,2.911c0.135,1.484,1.548,3.105,2.831,4.183c3.665,3.076,7.954,5.514,11.194,8.958
			c2.614,2.778,4.406,6.509,5.916,10.09C320.808,572.92,321.084,576.247,321.816,579.539z"/>
		<path fill="#D6AD3F" d="M327.671,219.294c2.266,11.826-1.395,22.006-9.531,30.724c-3.847,4.122-8.486,7.523-12.19,11.754
			c-1.874,2.141-4.164,6.488-3.254,7.908c1.459,2.276,5.334,3.859,8.338,4.142c12.857,1.214,24.802-2.409,36.109-8.267
			c2.327-1.205,4.463-2.903,6.401-4.685c1.1-1.011,1.618-2.654,2.398-4.013c-1.443-0.518-2.853-1.304-4.338-1.489
			c-1.964-0.245-4.019,0.203-5.97-0.086c-1.102-0.164-2.073-1.209-3.103-1.858c1.072-0.765,2.123-2.141,3.221-2.179
			c2.946-0.102,6.054-0.091,8.825,0.763c2.088,0.643,5.04,2.464,5.284,4.107c0.313,2.101-1.076,5.487-2.84,6.676
			c-5.89,3.97-11.969,8.001-18.542,10.538c-9.921,3.829-20.304,6.567-31.161,3.547c-9.103-2.532-11.189-7.944-5.366-15.393
			c3.337-4.267,7.471-7.954,11.491-11.635c7.78-7.124,11.671-15.826,11.565-26.376c-0.016-1.553,0.475-3.112,0.732-4.668
			C326.384,218.968,327.028,219.131,327.671,219.294z"/>
		<path fill="#D4AB38" d="M446.737,393.618c-10.677-1.312-21.4-2.34-32.013-4.052c-5.519-0.89-9.664-0.121-14.059,3.788
			c-6.676,5.938-14.187,10.949-21.471,16.178c-0.846,0.608-2.497,0.095-3.775,0.102c0.249-1.164,0.089-2.859,0.808-3.413
			c8.477-6.524,16.907-13.141,25.77-19.11c2.563-1.726,6.524-2.211,9.741-1.958c6.708,0.528,13.316,2.398,20.022,2.843
			c7.319,0.485,14.704-0.118,22.057,0c1.341,0.021,2.663,1.223,3.993,1.879c-1.003,1.044-1.883,2.787-3.033,2.989
			c-2.586,0.454-5.306,0.142-7.971,0.142C446.783,393.21,446.76,393.414,446.737,393.618z"/>
		<path fill="#D7AE3F" d="M302.324,483.499c1.843-2.153,3.455-2.7,5.529-0.026c4.628,5.968,9.564,11.698,14.134,17.707
			c0.991,1.302,1.307,3.361,1.36,5.09c0.206,6.638,0.297,13.287,0.132,19.924c-0.03,1.216-1.452,2.398-2.231,3.596
			c-0.736-1.099-2.004-2.15-2.107-3.305c-0.309-3.456-0.677-7.042-0.095-10.417c1.633-9.472-2.802-16.506-8.489-23.166
			C307.874,489.759,305.115,486.681,302.324,483.499z"/>
	</g>
</g>
</svg>
